<?xml version="1.0" encoding="utf-8"?>
<svg version="1.1" id="Layer_1" xmlns="http://www.w3.org/2000/svg" xmlns:xlink="http://www.w3.org/1999/xlink" x="0px" y="0px"
	 viewBox="0 0 22 22" style="enable-background:new 0 0 22 22;" xml:space="preserve">
<path d="M19.9,6.2c1.3,0.1,2.2,1.3,2.1,2.6c-0.1,0.6-0.3,1.1-0.8,1.5l-3.5,3.2l1,4.6c0.3,1.3-0.6,2.5-1.8,2.8
	c-0.6,0.1-1.1,0-1.6-0.3L11,18.3l-4.2,2.3c-1.1,0.6-2.6,0.2-3.2-0.9c-0.3-0.5-0.4-1.1-0.3-1.6l1-4.6l-3.5-3.2c-1-0.9-1-2.4-0.2-3.3
	C1,6.6,1.5,6.3,2.1,6.2l4.8-0.5l2-4.3c0.5-1.2,2-1.7,3.1-1.2c0.5,0.2,0.9,0.7,1.2,1.2l2,4.3L19.9,6.2z M11.6,2.1
	c-0.1-0.2-0.2-0.3-0.3-0.3c-0.4-0.2-0.8,0-0.9,0.3L8.2,6.9C8.1,7.1,7.8,7.3,7.6,7.3L2.3,7.9C2.1,7.9,2,8,1.9,8.1
	c-0.3,0.3-0.2,0.7,0,1l3.9,3.6c0.2,0.2,0.3,0.4,0.2,0.7L5,18.5c0,0.2,0,0.3,0.1,0.5c0.2,0.3,0.6,0.5,1,0.3l4.6-2.6
	c0.2-0.1,0.5-0.1,0.7,0l4.6,2.6c0.1,0.1,0.3,0.1,0.5,0.1c0.4-0.1,0.6-0.4,0.5-0.8l-1.1-5.2c-0.1-0.2,0-0.5,0.2-0.7l3.9-3.6
	c0.1-0.1,0.2-0.3,0.2-0.4c0-0.4-0.2-0.7-0.6-0.8l-5.3-0.6c-0.2,0-0.5-0.2-0.6-0.4L11.6,2.1z" fill="currentColor" />
</svg>
